<?xml version="1.0" encoding="UTF-8" standalone="no"?>
<!-- Created with Inkscape (http://www.inkscape.org/) -->

<svg
   xmlns:dc="http://purl.org/dc/elements/1.1/"
   xmlns:cc="http://creativecommons.org/ns#"
   xmlns:rdf="http://www.w3.org/1999/02/22-rdf-syntax-ns#"
   xmlns:svg="http://www.w3.org/2000/svg"
   xmlns="http://www.w3.org/2000/svg"
   xmlns:sodipodi="http://sodipodi.sourceforge.net/DTD/sodipodi-0.dtd"
   xmlns:inkscape="http://www.inkscape.org/namespaces/inkscape"
   width="22.559221mm"
   height="28.821444mm"
   viewBox="0 0 22.559221 28.821443"
   version="1.1"
   id="svg8"
   inkscape:export-filename="C:\Users\Chloe\Documents\Game-Animation\doctoroffice\assets\cactus.png"
   inkscape:export-xdpi="96"
   inkscape:export-ydpi="96"
   sodipodi:docname="cactus.svg"
   inkscape:version="0.92.0 r15299">
  <defs
     id="defs2" />
  <sodipodi:namedview
     id="base"
     pagecolor="#ffffff"
     bordercolor="#666666"
     borderopacity="1.0"
     inkscape:pageopacity="0.0"
     inkscape:pageshadow="2"
     inkscape:zoom="0.35"
     inkscape:cx="638.89625"
     inkscape:cy="152.83716"
     inkscape:document-units="mm"
     inkscape:current-layer="layer1"
     showgrid="false"
     fit-margin-top="0"
     fit-margin-left="0"
     fit-margin-right="0"
     fit-margin-bottom="0"
     inkscape:window-width="1366"
     inkscape:window-height="705"
     inkscape:window-x="-8"
     inkscape:window-y="-8"
     inkscape:window-maximized="1" />
  <metadata
     id="metadata5">
    <rdf:RDF>
      <cc:Work
         rdf:about="">
        <dc:format>image/svg+xml</dc:format>
        <dc:type
           rdf:resource="http://purl.org/dc/dcmitype/StillImage" />
        <dc:title></dc:title>
      </cc:Work>
    </rdf:RDF>
  </metadata>
  <g
     inkscape:label="Layer 1"
     inkscape:groupmode="layer"
     id="layer1"
     transform="translate(180.04594,-188.09522)">
    <g
       style="display:inline"
       id="g1665"
       transform="matrix(0.49848548,0,0,0.4727334,-222.87259,130.21295)">
      <ellipse
         ry="2.825413"
         rx="22.140387"
         cy="163.79924"
         cx="108.71594"
         id="path1454"
         style="fill:#754d0f;fill-opacity:1;stroke:#754d0f;stroke-width:0.62544358;stroke-miterlimit:4;stroke-dasharray:none;stroke-opacity:1" />
      <path
         sodipodi:nodetypes="cccccccccc"
         inkscape:connector-curvature="0"
         id="path1456"
         d="m 86.462052,163.99962 4.913691,1.51191 7.9375,1.13393 h 8.882447 l 7.9375,0.18898 8.50446,-0.94493 6.04762,-1.32292 -10.39434,18.70982 -23.434534,-0.18899 z"
         style="fill:#204a87;stroke:#204a87;stroke-width:0.26458332px;stroke-linecap:butt;stroke-linejoin:miter;stroke-opacity:1" />
      <path
         sodipodi:nodetypes="ccssssccccscc"
         inkscape:transform-center-y="0.75586164"
         inkscape:transform-center-x="-1.7030708"
         inkscape:connector-curvature="0"
         id="path1458-0"
         d="m 102.30834,165.29538 16.81995,0.18899 c 0,0 14.74107,-10.58334 10.20535,-13.41816 -4.53571,-2.83482 -8.12648,0.75595 -8.88244,2.64584 -0.75595,1.88987 -2.83482,2.07886 -2.83482,0.18898 0,-1.88988 6.61459,-8.69346 7.37054,-13.60714 0.75595,-4.91369 5.57515,-11.43378 -2.36235,-13.89062 -6.4256,-3.68528 -22.4896,-7.93751 -25.702391,-1.51192 -3.21279,6.4256 -2.36234,9.35492 -1.039435,12.56771 1.32292,3.2128 6.236606,10.20536 4.346726,11.15031 -1.889876,0.94493 -3.401786,-3.96876 -6.236601,-3.96876 -2.83482,0 -4.53571,0 -2.07887,9.26042 2.45685,9.26042 10.394341,10.39435 10.394341,10.39435 z"
         style="display:inline;fill:#4e9a06;stroke:#4e9a06;stroke-width:0.26458332px;stroke-linecap:butt;stroke-linejoin:miter;stroke-opacity:1" />
      <path
         sodipodi:nodetypes="ccssssccccscc"
         inkscape:transform-center-y="0.75586164"
         inkscape:transform-center-x="-1.7030708"
         inkscape:connector-curvature="0"
         id="path1458"
         d="m 99.407737,165.65327 16.819943,0.18899 c 0,0 14.74107,-10.58334 10.20535,-13.41816 -4.53571,-2.83482 -8.12648,0.75595 -8.88244,2.64584 -0.75595,1.88987 -2.83482,2.07886 -2.83482,0.18898 0,-1.88988 6.61459,-8.69346 7.37054,-13.60714 0.75595,-4.91369 6.04762,-11.43378 -1.88988,-13.89062 -7.9375,-2.45685 -21.450153,-6.89807 -24.662953,-0.47248 -3.21279,6.4256 -3.87425,8.31548 -2.55134,11.52827 1.32292,3.2128 6.23661,10.20536 4.34673,11.15031 -1.88988,0.94493 -3.40179,-3.96876 -6.23661,-3.96876 -2.83482,0 -4.53571,0 -2.07887,9.26042 2.45685,9.26042 10.39435,10.39435 10.39435,10.39435 z"
         style="display:inline;fill:#8ae234;stroke:#8ae234;stroke-width:0.26458332px;stroke-linecap:butt;stroke-linejoin:miter;stroke-opacity:1" />
      <path
         inkscape:connector-curvature="0"
         id="path1502"
         d="m 89.485863,145.9985 0.377976,5.95313 2.551338,5.19717 4.63021,5.76414 2.36235,2.74033 v 0"
         style="fill:none;stroke:#4e9a06;stroke-width:0.465;stroke-linecap:round;stroke-linejoin:miter;stroke-miterlimit:4;stroke-dasharray:none;stroke-opacity:1" />
      <path
         inkscape:connector-curvature="0"
         id="path1504"
         d="m 101.48032,123.88609 -2.867363,4.76872 -1.757416,8.20221 2.219895,7.8207 2.127404,6.96234 0.27748,6.29472 0.71186,7.74561 v 0"
         style="fill:none;stroke:#4e9a06;stroke-width:0.463;stroke-linecap:round;stroke-linejoin:miter;stroke-miterlimit:4;stroke-dasharray:none;stroke-opacity:1" />
      <path
         inkscape:connector-curvature="0"
         id="path1506"
         d="m 107.81771,124.35936 -1.32292,13.89063 0.0945,14.07961 -0.28348,13.51265"
         style="fill:none;stroke:#4e9a06;stroke-width:0.465;stroke-linecap:butt;stroke-linejoin:miter;stroke-miterlimit:4;stroke-dasharray:none;stroke-opacity:1" />
      <path
         inkscape:connector-curvature="0"
         id="path1508"
         d="m 115.09375,126.0833 2.26786,4.37538 0.18898,7.41914 -1.70089,7.98984 -3.49628,6.94355 0.56696,5.13633 -1.60639,7.89471"
         style="fill:none;stroke:#4e9a06;stroke-width:0.46599999;stroke-linecap:round;stroke-linejoin:miter;stroke-miterlimit:4;stroke-dasharray:none;stroke-opacity:1" />
      <path
         inkscape:connector-curvature="0"
         id="path1512"
         d="m 125.25012,151.76438 -1.84293,3.11753 -4.17088,4.91247 -3.0069,6.04613 v 0"
         style="fill:none;stroke:#4e9a06;stroke-width:0.46799999;stroke-linecap:round;stroke-linejoin:miter;stroke-miterlimit:4;stroke-dasharray:none;stroke-opacity:1" />
      <path
         transform="matrix(0.52895582,0.22326467,-0.18306634,0.43371845,84.65139,56.353151)"
         inkscape:transform-center-y="0.73279821"
         inkscape:transform-center-x="0.070804313"
         d="m 78.042698,145.05727 -5.01353,-4.05445 -5.01353,-4.05444 6.018017,-2.31462 6.018017,-2.31462 -1.004487,6.36906 z"
         inkscape:randomized="0"
         inkscape:rounded="0"
         inkscape:flatsided="false"
         sodipodi:arg2="2.25082"
         sodipodi:arg1="1.2036225"
         sodipodi:r2="3.7226336"
         sodipodi:r1="7.4452672"
         sodipodi:cy="138.10826"
         sodipodi:cx="75.370003"
         sodipodi:sides="3"
         id="path1514"
         style="fill:#4e9a06;fill-opacity:1;stroke:#4e9a06;stroke-width:0.26499999;stroke-linecap:round;stroke-linejoin:miter;stroke-miterlimit:4;stroke-dasharray:none;stroke-opacity:1"
         sodipodi:type="star" />
      <path
         transform="matrix(-0.33313721,0.46761199,-0.38341944,-0.27315656,198.97831,133.58832)"
         inkscape:transform-center-y="0.32418824"
         inkscape:transform-center-x="0.33001584"
         d="m 78.042698,145.05727 -5.01353,-4.05445 -5.01353,-4.05444 6.018017,-2.31462 6.018017,-2.31462 -1.004487,6.36906 z"
         inkscape:randomized="0"
         inkscape:rounded="0"
         inkscape:flatsided="false"
         sodipodi:arg2="2.25082"
         sodipodi:arg1="1.2036225"
         sodipodi:r2="3.7226336"
         sodipodi:r1="7.4452672"
         sodipodi:cy="138.10826"
         sodipodi:cx="75.370003"
         sodipodi:sides="3"
         id="path1514-6"
         style="fill:#4e9a06;fill-opacity:1;stroke:#4e9a06;stroke-width:0.26499999;stroke-linecap:round;stroke-linejoin:miter;stroke-miterlimit:4;stroke-dasharray:none;stroke-opacity:1"
         sodipodi:type="star" />
      <path
         transform="matrix(0.52895582,0.22326467,-0.18306634,0.43371844,75.137803,71.613441)"
         inkscape:transform-center-y="0.73279821"
         inkscape:transform-center-x="0.070804313"
         d="m 78.042698,145.05727 -5.01353,-4.05445 -5.01353,-4.05444 6.018017,-2.31462 6.018017,-2.31462 -1.004487,6.36906 z"
         inkscape:randomized="0"
         inkscape:rounded="0"
         inkscape:flatsided="false"
         sodipodi:arg2="2.25082"
         sodipodi:arg1="1.2036225"
         sodipodi:r2="3.7226336"
         sodipodi:r1="7.4452672"
         sodipodi:cy="138.10826"
         sodipodi:cx="75.370003"
         sodipodi:sides="3"
         id="path1514-3"
         style="fill:#4e9a06;fill-opacity:1;stroke:#4e9a06;stroke-width:0.26499999;stroke-linecap:round;stroke-linejoin:miter;stroke-miterlimit:4;stroke-dasharray:none;stroke-opacity:1"
         sodipodi:type="star" />
      <path
         transform="matrix(-0.33313722,0.46761199,-0.38341943,-0.27315655,200.41733,157.3678)"
         inkscape:transform-center-y="0.32418824"
         inkscape:transform-center-x="0.33001584"
         d="m 78.042698,145.05727 -5.01353,-4.05445 -5.01353,-4.05444 6.018017,-2.31462 6.018017,-2.31462 -1.004487,6.36906 z"
         inkscape:randomized="0"
         inkscape:rounded="0"
         inkscape:flatsided="false"
         sodipodi:arg2="2.25082"
         sodipodi:arg1="1.2036225"
         sodipodi:r2="3.7226336"
         sodipodi:r1="7.4452672"
         sodipodi:cy="138.10826"
         sodipodi:cx="75.370003"
         sodipodi:sides="3"
         id="path1514-6-0"
         style="fill:#4e9a06;fill-opacity:1;stroke:#4e9a06;stroke-width:0.26499999;stroke-linecap:round;stroke-linejoin:miter;stroke-miterlimit:4;stroke-dasharray:none;stroke-opacity:1"
         sodipodi:type="star" />
      <path
         transform="matrix(0.2034806,0.53687711,-0.4402135,0.16684435,151.31133,83.339199)"
         inkscape:transform-center-y="-0.77379773"
         inkscape:transform-center-x="-0.49293036"
         d="m 78.042698,145.05727 -5.01353,-4.05445 -5.01353,-4.05444 6.018017,-2.31462 6.018017,-2.31462 -1.004487,6.36906 z"
         inkscape:randomized="0"
         inkscape:rounded="0"
         inkscape:flatsided="false"
         sodipodi:arg2="2.25082"
         sodipodi:arg1="1.2036225"
         sodipodi:r2="3.7226336"
         sodipodi:r1="7.4452672"
         sodipodi:cy="138.10826"
         sodipodi:cx="75.370003"
         sodipodi:sides="3"
         id="path1514-6-7"
         style="fill:#4e9a06;fill-opacity:1;stroke:#4e9a06;stroke-width:0.26499999;stroke-linecap:round;stroke-linejoin:miter;stroke-miterlimit:4;stroke-dasharray:none;stroke-opacity:1"
         sodipodi:type="star" />
      <path
         transform="matrix(-0.33313722,0.46761199,-0.38341943,-0.27315655,198.5744,160.48533)"
         inkscape:transform-center-y="0.32418824"
         inkscape:transform-center-x="0.33001584"
         d="m 78.042698,145.05727 -5.01353,-4.05445 -5.01353,-4.05444 6.018017,-2.31462 6.018017,-2.31462 -1.004487,6.36906 z"
         inkscape:randomized="0"
         inkscape:rounded="0"
         inkscape:flatsided="false"
         sodipodi:arg2="2.25082"
         sodipodi:arg1="1.2036225"
         sodipodi:r2="3.7226336"
         sodipodi:r1="7.4452672"
         sodipodi:cy="138.10826"
         sodipodi:cx="75.370003"
         sodipodi:sides="3"
         id="path1514-6-03"
         style="fill:#4e9a06;fill-opacity:1;stroke:#4e9a06;stroke-width:0.26499999;stroke-linecap:round;stroke-linejoin:miter;stroke-miterlimit:4;stroke-dasharray:none;stroke-opacity:1"
         sodipodi:type="star" />
      <path
         transform="matrix(-0.33313722,0.46761199,-0.38341943,-0.27315655,187.98421,138.24927)"
         inkscape:transform-center-y="0.32418824"
         inkscape:transform-center-x="0.33001584"
         d="m 78.042698,145.05727 -5.01353,-4.05445 -5.01353,-4.05444 6.018017,-2.31462 6.018017,-2.31462 -1.004487,6.36906 z"
         inkscape:randomized="0"
         inkscape:rounded="0"
         inkscape:flatsided="false"
         sodipodi:arg2="2.25082"
         sodipodi:arg1="1.2036225"
         sodipodi:r2="3.7226336"
         sodipodi:r1="7.4452672"
         sodipodi:cy="138.10826"
         sodipodi:cx="75.370003"
         sodipodi:sides="3"
         id="path1514-6-9"
         style="fill:#4e9a06;fill-opacity:1;stroke:#4e9a06;stroke-width:0.26499999;stroke-linecap:round;stroke-linejoin:miter;stroke-miterlimit:4;stroke-dasharray:none;stroke-opacity:1"
         sodipodi:type="star" />
      <path
         transform="matrix(-0.33313722,0.46761199,-0.38341943,-0.27315655,188.08759,163.55096)"
         inkscape:transform-center-y="0.32418824"
         inkscape:transform-center-x="0.33001584"
         d="m 78.042698,145.05727 -5.01353,-4.05445 -5.01353,-4.05444 6.018017,-2.31462 6.018017,-2.31462 -1.004487,6.36906 z"
         inkscape:randomized="0"
         inkscape:rounded="0"
         inkscape:flatsided="false"
         sodipodi:arg2="2.25082"
         sodipodi:arg1="1.2036225"
         sodipodi:r2="3.7226336"
         sodipodi:r1="7.4452672"
         sodipodi:cy="138.10826"
         sodipodi:cx="75.370003"
         sodipodi:sides="3"
         id="path1514-6-0-8"
         style="fill:#4e9a06;fill-opacity:1;stroke:#4e9a06;stroke-width:0.26499999;stroke-linecap:round;stroke-linejoin:miter;stroke-miterlimit:4;stroke-dasharray:none;stroke-opacity:1"
         sodipodi:type="star" />
    </g>
  </g>
</svg>
